<svg width="16" height="16" viewBox="0 0 16 16" fill="none" xmlns="http://www.w3.org/2000/svg">
<path d="M2.66683 7.66622V10.3329C2.66683 10.8862 3.1135 11.3329 3.66683 11.3329C4.22016 11.3329 4.66683 10.8862 4.66683 10.3329V7.66622C4.66683 7.11289 4.22016 6.66622 3.66683 6.66622C3.1135 6.66622 2.66683 7.11289 2.66683 7.66622ZM6.66683 7.66622V10.3329C6.66683 10.8862 7.1135 11.3329 7.66683 11.3329C8.22016 11.3329 8.66683 10.8862 8.66683 10.3329V7.66622C8.66683 7.11289 8.22016 6.66622 7.66683 6.66622C7.1135 6.66622 6.66683 7.11289 6.66683 7.66622ZM2.3335 14.6662H13.0002C13.5535 14.6662 14.0002 14.2196 14.0002 13.6662C14.0002 13.1129 13.5535 12.6662 13.0002 12.6662H2.3335C1.78016 12.6662 1.3335 13.1129 1.3335 13.6662C1.3335 14.2196 1.78016 14.6662 2.3335 14.6662ZM10.6668 7.66622V10.3329C10.6668 10.8862 11.1135 11.3329 11.6668 11.3329C12.2202 11.3329 12.6668 10.8862 12.6668 10.3329V7.66622C12.6668 7.11289 12.2202 6.66622 11.6668 6.66622C11.1135 6.66622 10.6668 7.11289 10.6668 7.66622ZM7.04683 0.992891L1.78016 3.76622C1.50683 3.90622 1.3335 4.19289 1.3335 4.49956C1.3335 4.95956 1.70683 5.33289 2.16683 5.33289H13.1735C13.6268 5.33289 14.0002 4.95956 14.0002 4.49956C14.0002 4.19289 13.8268 3.90622 13.5535 3.76622L8.28683 0.992891C7.90016 0.786224 7.4335 0.786224 7.04683 0.992891Z" fill="#494949"/>
</svg>
