<svg width="34" height="34" viewBox="0 0 34 34" fill="none" xmlns="http://www.w3.org/2000/svg">
<path d="M18.1964 1.38661C17.8509 1.13561 17.4312 1 17 1C16.5688 1 16.1491 1.13561 15.8036 1.38661L1.63111 11.6805C0.431111 12.5515 1.06489 14.4066 2.56089 14.4066H31.44C32.9369 14.4066 33.5698 12.5515 32.3707 11.6805L18.1964 1.38661ZM1 30.6233C0.999883 30.0269 1.1205 29.4364 1.35497 28.8854C1.58944 28.3344 1.93317 27.8337 2.36652 27.412C2.79987 26.9903 3.31436 26.6557 3.88061 26.4275C4.44685 26.1992 5.05376 26.0818 5.66667 26.0818H28.3333C30.9111 26.0818 33 28.1142 33 30.6224V31.9198C33 32.5165 32.5022 33 31.8889 33H2.11111C1.96524 33.0001 1.82078 32.9723 1.68597 32.918C1.55117 32.8638 1.42868 32.7842 1.32549 32.6839C1.2223 32.5836 1.14045 32.4645 1.0846 32.3333C1.02875 32.2022 1 32.0617 1 31.9198V30.6233ZM8.11111 24.352H4.55556V16.1355H8.11111V24.352ZM11.6667 16.1355V24.352H15.2222V16.1355H11.6667ZM18.7778 16.1355V24.352H22.3333V16.1355H18.7778ZM25.8889 16.1355V24.352H29.4444V16.1355H25.8889Z" fill="white"/>
</svg>
