<svg width="16" height="13" viewBox="0 0 16 13" fill="none" xmlns="http://www.w3.org/2000/svg">
<path d="M14.5999 0.492297C14.4358 0.377456 14.2507 0.296075 14.0551 0.252803C13.8595 0.209532 13.6573 0.205216 13.46 0.240105C13.2628 0.274993 13.0743 0.348401 12.9055 0.456135C12.7366 0.563869 12.5906 0.703819 12.4758 0.86799L6.677 9.14947L2.87487 6.55229C2.56993 6.3437 2.19461 6.26479 1.83149 6.33292C1.46836 6.40105 1.14717 6.61064 0.938581 6.91559C0.729989 7.22053 0.651078 7.59585 0.719209 7.95897C0.78734 8.3221 0.996931 8.64328 1.30187 8.85188L6.39842 12.333C6.55539 12.4402 6.73278 12.5138 6.91949 12.5492C7.10621 12.5847 7.29823 12.5812 7.48355 12.539C7.68121 12.5045 7.87011 12.4313 8.03942 12.3236C8.20872 12.2159 8.35511 12.0758 8.47018 11.9114L14.9759 2.61759C15.2077 2.28573 15.2983 1.87539 15.2278 1.47674C15.1573 1.0781 14.9314 0.723761 14.5997 0.491601" fill="white"/>
</svg>
