<svg width="242" height="202" viewBox="0 0 242 202" fill="none" xmlns="http://www.w3.org/2000/svg">
<g clip-path="url(#clip0_340_987)">
<path d="M160.061 164.48H15.5144V0H160.061V164.48Z" fill="white"/>
<path d="M160.061 164.48H15.5144V0H160.061V164.48ZM17.6322 162.516H157.943V1.96441H17.6322V162.516Z" fill="#E6E6E6"/>
<path d="M160.12 0H15.7581V21.0409H160.12V0Z" fill="#00B0F0"/>
<path d="M36.4555 52.2398C43.2435 52.2398 48.7463 46.737 48.7463 39.949C48.7463 33.161 43.2435 27.6582 36.4555 27.6582C29.6674 27.6582 24.1647 33.161 24.1647 39.949C24.1647 46.737 29.6674 52.2398 36.4555 52.2398Z" fill="#E6E6E6"/>
<path d="M100.729 31.2715H58.6271V34.8864H100.729V31.2715Z" fill="#E6E6E6"/>
<path d="M151.41 39.9492H58.6271V43.5642H151.41V39.9492Z" fill="#E6E6E6"/>
<path d="M151.41 48.623H58.6271V52.238H151.41V48.623Z" fill="#E6E6E6"/>
<path d="M36.4555 152.845C43.2435 152.845 48.7463 147.342 48.7463 140.554C48.7463 133.766 43.2435 128.264 36.4555 128.264C29.6674 128.264 24.1647 133.766 24.1647 140.554C24.1647 147.342 29.6674 152.845 36.4555 152.845Z" fill="#E6E6E6"/>
<path d="M100.729 131.877H58.6271V135.492H100.729V131.877Z" fill="#E6E6E6"/>
<path d="M151.41 140.557H58.6271V144.172H151.41V140.557Z" fill="#E6E6E6"/>
<path d="M151.41 149.23H58.6271V152.845H151.41V149.23Z" fill="#E6E6E6"/>
<path d="M38.504 5.37891H20.1884V8.02986H38.504V5.37891Z" fill="white"/>
<path d="M38.504 9.95703H20.1884V12.608H38.504V9.95703Z" fill="white"/>
<path d="M38.504 14.5371H20.1884V17.1881H38.504V14.5371Z" fill="white"/>
<path d="M175.575 113.638H0V66.8613H175.575V113.638Z" fill="white"/>
<path d="M175.575 113.638H0V66.8613H175.575V113.638ZM2.11777 111.52H173.457V68.9791H2.11777V111.52Z" fill="#CCCCCC"/>
<path d="M21.788 102.336C28.4991 102.336 33.9396 96.8959 33.9396 90.1848C33.9396 83.4736 28.4991 78.0332 21.788 78.0332C15.0769 78.0332 9.63647 83.4736 9.63647 90.1848C9.63647 96.8959 15.0769 102.336 21.788 102.336Z" fill="#00B0F0"/>
<path d="M97.5564 79.9375H47.2823V83.5115H97.5564V79.9375Z" fill="#132144"/>
<path d="M158.076 88.5137H47.2823V92.0876H158.076V88.5137Z" fill="#132144"/>
<path d="M158.076 97.0918H47.2823V100.666H158.076V97.0918Z" fill="#132144"/>
<path d="M203.663 125.97C203.817 125.908 203.977 125.858 204.139 125.822L209.5 111.893L207.225 109.07L211.037 105.08C212.139 106.701 217.587 110.116 215.929 112.551L207.609 127.353C207.842 127.77 207.978 128.235 208.006 128.712C208.034 129.189 207.953 129.666 207.77 130.108C207.586 130.549 207.305 130.944 206.948 131.261C206.59 131.578 206.166 131.81 205.705 131.94C201.992 133.053 200.049 127.339 203.663 125.97Z" fill="#A0616A"/>
<path d="M208.736 111.833C207.774 112.111 204.142 106.463 203.535 105.972C202.812 105.288 202.39 104.345 202.36 103.349C202.331 102.354 202.698 101.388 203.38 100.663C204.063 99.9373 205.005 99.5122 206 99.4804C206.995 99.4487 207.962 99.8128 208.689 100.493L214.276 104.403C214.434 104.516 214.566 104.661 214.664 104.829C214.762 104.996 214.822 105.183 214.842 105.376C214.862 105.57 214.84 105.765 214.778 105.949C214.716 106.133 214.615 106.301 214.483 106.443C213.815 106.898 209.686 112.18 208.736 111.833Z" fill="#00B0F0"/>
<path d="M210.636 196.562L206.309 196.562L205.662 179.871L210.637 179.871L210.636 196.562Z" fill="#A0616A"/>
<path d="M211.74 200.755L197.787 200.755C197.656 193.37 207.095 195.383 211.74 195.148L211.74 200.755Z" fill="#132144"/>
<path d="M224.73 195.138L220.431 195.637L216.463 179.295L222.807 178.559L224.73 195.138Z" fill="#A0616A"/>
<path d="M226.31 199.177L212.45 200.785C211.469 193.464 221.076 194.376 225.664 193.607L226.31 199.177Z" fill="#132144"/>
<path d="M211.41 192.601H204.295V165.783L200.14 143.395L194.456 123.503L207.79 117.016L210.333 121.011C210.726 121.369 217.097 127.264 217.784 133.106C218.485 139.06 211.719 190.27 211.431 192.447L211.41 192.601Z" fill="#132144"/>
<path d="M194.938 127.666L192.742 118.037C192.226 117.542 187.351 112.544 192.748 106.157L195.591 98.7428L203.922 96.1621L207.18 98.6839C208.492 99.6982 209.534 101.019 210.216 102.531C210.897 104.043 211.196 105.7 211.087 107.354L210.197 120.977L194.938 127.666Z" fill="#132144"/>
<path d="M202.071 80.1926C210.657 85.0779 203.609 97.9677 194.863 93.3777C186.279 88.4926 193.326 75.6028 202.071 80.1926Z" fill="#A0616A"/>
<path d="M178.455 97.5619C178.482 97.7408 178.495 97.9216 178.494 98.1026L191.925 107.199L195.472 105.484L198.761 110.5C196.774 111.267 191.82 116.197 189.649 113.844L176.021 101.401C175.522 101.545 174.997 101.574 174.485 101.487C173.973 101.399 173.487 101.196 173.065 100.894C172.642 100.591 172.294 100.197 172.046 99.7408C171.798 99.2843 171.656 98.7776 171.632 98.2586C171.365 94.0531 177.893 93.3995 178.455 97.5619Z" fill="#A0616A"/>
<path d="M192.175 106.405C192.118 105.319 198.989 102.86 199.658 102.338C200.56 101.741 201.663 101.525 202.724 101.739C203.784 101.952 204.717 102.578 205.317 103.478C205.918 104.379 206.137 105.48 205.926 106.542C205.715 107.603 205.092 108.538 204.194 109.141L198.682 114.095C198.524 114.235 198.338 114.34 198.136 114.402C197.934 114.464 197.722 114.482 197.512 114.456C197.303 114.429 197.102 114.358 196.922 114.247C196.743 114.136 196.589 113.988 196.471 113.813C196.154 112.994 191.575 107.325 192.175 106.405Z" fill="#00B0F0"/>
<path d="M217.106 187.283L208.276 165.165L214.159 156.709L227.09 186.523L217.106 187.283Z" fill="#132144"/>
<path d="M216.931 201.188H124.29C124.196 201.188 124.106 201.151 124.04 201.085C123.974 201.019 123.937 200.929 123.937 200.835C123.937 200.742 123.974 200.652 124.04 200.586C124.106 200.52 124.196 200.482 124.29 200.482L216.931 200.482C217.025 200.482 217.114 200.52 217.181 200.586C217.247 200.652 217.284 200.742 217.284 200.835C217.284 200.929 217.247 201.019 217.181 201.085C217.114 201.151 217.025 201.188 216.931 201.188Z" fill="#CCCCCC"/>
<path d="M225.093 86.6099C222.225 87.1389 219.224 86.2642 216.766 84.694C214.309 83.1238 212.334 80.9041 210.582 78.5728C209.595 77.2605 208.641 75.8762 207.299 74.9316C205.956 73.9871 204.098 73.5682 202.664 74.3668C201.399 75.0709 200.842 76.9189 201.584 78.0756C199.592 77.5764 197.479 77.7266 195.466 78.1525C193.526 78.5628 191.556 79.2709 190.213 80.7299C188.871 82.1888 188.363 84.5594 189.497 86.1853L191.18 86.4755C194.253 85.7747 195.673 86.0859 198.745 86.7868C198.642 86.2434 199.495 85.9541 199.926 86.3005C200.358 86.6468 200.203 87.3357 200.481 87.8137C201.669 89.8497 201.67 92.3481 201.063 94.2407C204.108 92.9765 206.339 89.5539 206.962 86.3171C207.27 84.9035 207.157 83.4306 206.636 82.0809C206.385 81.4899 206.04 80.9429 205.616 80.4606C206.758 80.7955 207.81 81.3786 208.7 82.1683C210.267 83.5316 211.401 85.3112 212.654 86.968C213.907 88.6249 215.37 90.2303 217.295 91.0106C220.247 92.2069 223.754 91.1605 226.177 89.0933C228.068 87.4802 229.405 85.342 230.47 83.0778C229.856 83.997 229.064 84.7834 228.14 85.3902C227.216 85.997 226.18 86.4118 225.093 86.6099Z" fill="#132144"/>
<path d="M230.469 83.0814C230.853 82.4871 231.138 81.8342 231.311 81.1484C231.049 81.7971 230.769 82.4439 230.469 83.0814Z" fill="#2F2E41"/>
</g>
<defs>
<clipPath id="clip0_340_987">
<rect width="242" height="201.189" fill="white"/>
</clipPath>
</defs>
</svg>
