<svg width="37" height="37" viewBox="0 0 37 37" fill="none" xmlns="http://www.w3.org/2000/svg">
<path d="M22.906 18.7438C23.7694 19.6272 24.2581 20.6986 24.6111 22.1786L24.7653 22.8816L25.0412 24.3416C25.1784 25.0276 25.2848 25.4084 25.4328 25.7414C25.8953 26.779 26.7124 27.8443 27.8918 28.925C28.0066 29.0267 28.1 29.1504 28.1665 29.2886C28.2331 29.4268 28.2715 29.5769 28.2795 29.7301C28.2874 29.8833 28.2648 30.0366 28.213 30.181C28.1611 30.3254 28.0811 30.458 27.9774 30.5712C27.8738 30.6843 27.7487 30.7757 27.6094 30.84C27.4701 30.9043 27.3194 30.9403 27.1661 30.9457C27.0128 30.9512 26.8599 30.9261 26.7163 30.8719C26.5728 30.8177 26.4415 30.7355 26.3301 30.6301C24.9302 29.3474 23.9251 28.0354 23.3207 26.6834C23.091 26.1685 22.9507 25.6813 22.7873 24.8642L22.4636 23.1684L22.442 23.0759C22.1645 21.7655 21.8191 20.9407 21.2518 20.3595C20.1526 19.2341 17.6181 19.5316 16.9398 20.6031C16.0734 21.9736 15.8529 24.2969 16.5405 26.6402C17.0724 28.4501 17.7769 30.2323 18.6556 31.9852C18.7301 32.1214 18.7764 32.2713 18.7917 32.4258C18.807 32.5804 18.791 32.7364 18.7447 32.8846C18.6984 33.0328 18.6227 33.1702 18.5221 33.2885C18.4216 33.4068 18.2982 33.5037 18.1594 33.5733C18.0206 33.6429 17.8692 33.6839 17.7142 33.6937C17.5592 33.7035 17.4039 33.682 17.2574 33.6305C17.1109 33.579 16.9763 33.4984 16.8616 33.3938C16.7469 33.2891 16.6545 33.1624 16.5898 33.0212C15.6636 31.1829 14.9047 29.2651 14.322 27.2908C13.4556 24.3431 13.7424 21.3338 14.9849 19.3666C16.4541 17.0449 20.7539 16.5392 22.906 18.7438ZM19.2584 22.3128C19.4103 22.3076 19.5617 22.3325 19.7039 22.3859C19.8462 22.4393 19.9765 22.5202 20.0875 22.624C20.1985 22.7278 20.2879 22.8524 20.3506 22.9908C20.4134 23.1292 20.4482 23.2786 20.4532 23.4305C20.5324 25.812 21.3062 28.1184 22.6794 30.0658L22.9816 30.4759L23.4441 31.0771C23.6215 31.3084 23.705 31.5981 23.678 31.8883C23.6509 32.1784 23.5153 32.4477 23.2982 32.6422C23.0812 32.8366 22.7987 32.942 22.5072 32.9371C22.2158 32.9322 21.937 32.8174 21.7266 32.6157L21.6126 32.4878L21.1501 31.8865C19.2956 29.477 18.2436 26.5464 18.1423 23.5076C18.1319 23.2011 18.2436 22.9031 18.4529 22.679C18.6622 22.455 18.952 22.3232 19.2584 22.3128ZM13.5404 14.4765C16.7964 12.0669 21.0545 12.1979 23.9189 14.0386C25.3526 14.9606 26.4395 16.0351 27.161 17.2654C27.3164 17.5299 27.3603 17.8453 27.2831 18.1423C27.2059 18.4392 27.0139 18.6933 26.7494 18.8486C26.4848 19.004 26.1694 19.0479 25.8725 18.9707C25.5756 18.8935 25.3215 18.7016 25.1661 18.437C24.6388 17.5367 23.8125 16.7181 22.6686 15.9842C20.5689 14.6337 17.3499 14.5351 14.9171 16.3357C12.3903 18.2058 11.3266 21.4094 11.6441 24.7871C11.8214 26.6788 12.3903 28.5904 13.36 30.5283C13.4942 30.8023 13.5146 31.1183 13.4168 31.4073C13.319 31.6963 13.111 31.9349 12.838 32.0712C12.565 32.2075 12.2493 32.2304 11.9595 32.1348C11.6698 32.0393 11.4295 31.8331 11.2911 31.5612C10.1981 29.3767 9.54593 27.1875 9.34089 25.003C8.95548 20.8867 10.2813 16.8892 13.5404 14.4765ZM27.6929 21.1072C27.9989 21.0917 28.2985 21.1982 28.526 21.4034C28.7535 21.6087 28.8902 21.8958 28.9062 22.2018C28.954 23.1329 29.1837 23.893 29.5876 24.505C29.9268 25.0184 30.2259 25.3144 30.4556 25.43L30.5496 25.467C30.8432 25.5557 31.0895 25.7575 31.2343 26.0278C31.3792 26.2981 31.4107 26.6149 31.322 26.9085C31.2333 27.2021 31.0315 27.4484 30.7612 27.5932C30.4909 27.7381 30.1741 27.7696 29.8805 27.6809C29.0372 27.4265 28.3126 26.7744 27.6559 25.7769C27.0161 24.8056 26.6661 23.6463 26.5968 22.322C26.5889 22.1704 26.6109 22.0187 26.6617 21.8756C26.7124 21.7324 26.7908 21.6007 26.8925 21.4879C26.9941 21.3751 27.117 21.2834 27.254 21.2181C27.3911 21.1528 27.5397 21.1151 27.6914 21.1072H27.6929ZM16.2029 9.40748C16.2652 9.54605 16.2996 9.69555 16.3041 9.84742C16.3087 9.9993 16.2832 10.1506 16.2292 10.2926C16.1752 10.4346 16.0938 10.5646 15.9895 10.6752C15.8853 10.7857 15.7603 10.8746 15.6216 10.9368C12.785 12.2133 10.6976 14.0325 9.32702 16.4066C7.61114 19.379 7.1471 22.8524 7.53252 25.78C7.55236 25.9306 7.54234 26.0837 7.50302 26.2304C7.46371 26.3772 7.39588 26.5147 7.3034 26.6353C7.11663 26.8787 6.8408 27.038 6.5366 27.0781C6.38597 27.0979 6.23292 27.0879 6.08616 27.0486C5.93941 27.0093 5.80184 26.9414 5.6813 26.8489C5.43786 26.6622 5.27859 26.3863 5.23852 26.0821C4.79452 22.6889 5.32331 18.7161 7.32439 15.2504C8.94777 12.443 11.4083 10.2986 14.6751 8.82781C14.8135 8.76543 14.9629 8.73093 15.1148 8.7263C15.2666 8.72167 15.4178 8.747 15.5598 8.80083C15.7018 8.85466 15.8319 8.93594 15.9425 9.04003C16.0531 9.14412 16.1421 9.26898 16.2044 9.40748H16.2029ZM19.815 8.19419C22.6362 8.25123 25.4451 9.54777 28.2309 12.0268C31.0414 14.5274 32.7341 17.9267 33.3092 22.1709C33.3331 22.323 33.3265 22.4782 33.2896 22.6276C33.2528 22.7771 33.1865 22.9176 33.0946 23.0411C33.0027 23.1645 32.8871 23.2684 32.7546 23.3466C32.6221 23.4248 32.4752 23.4758 32.3228 23.4965C32.1703 23.5172 32.0152 23.5073 31.8666 23.4673C31.718 23.4273 31.5788 23.3581 31.4573 23.2636C31.3358 23.1692 31.2344 23.0514 31.159 22.9173C31.0836 22.7831 31.0358 22.6352 31.0183 22.4824C30.5141 18.7639 29.0742 15.8732 26.6939 13.755C24.2889 11.6151 21.9841 10.5514 19.7687 10.5067C19.6169 10.5037 19.4671 10.4707 19.328 10.4098C19.1889 10.3489 19.0631 10.2612 18.9579 10.1517C18.8527 10.0422 18.7701 9.913 18.7148 9.77155C18.6595 9.63011 18.6326 9.47916 18.6356 9.32731C18.6386 9.17547 18.6716 9.02572 18.7325 8.8866C18.7934 8.74748 18.8811 8.62172 18.9906 8.5165C19.1001 8.41127 19.2293 8.32866 19.3707 8.27335C19.5122 8.21805 19.6631 8.19115 19.815 8.19419ZM9.22218 8.21577C9.32346 8.32918 9.40137 8.46144 9.45146 8.60499C9.50155 8.74855 9.52284 8.90057 9.5141 9.05236C9.50537 9.20415 9.46678 9.35273 9.40055 9.48959C9.33433 9.62645 9.24176 9.7489 9.12814 9.84994C8.71343 10.2169 8.28023 10.6562 7.82698 11.1665C7.40148 11.6475 6.96364 12.2704 6.52273 13.0366C6.44736 13.1691 6.34652 13.2855 6.226 13.3789C6.10549 13.4723 5.96769 13.541 5.82053 13.5809C5.67337 13.6209 5.51976 13.6313 5.36854 13.6117C5.21733 13.592 5.0715 13.5427 4.93944 13.4664C4.80738 13.3902 4.69171 13.2886 4.59909 13.1674C4.50646 13.0463 4.43871 12.908 4.39974 12.7606C4.36076 12.6132 4.35133 12.4595 4.37199 12.3084C4.39264 12.1574 4.44298 12.0119 4.5201 11.8803C4.96944 11.0803 5.49779 10.3273 6.09723 9.63257C6.60752 9.05598 7.10548 8.5534 7.58956 8.12173C7.70293 8.02069 7.83509 7.94298 7.97849 7.89302C8.1219 7.84307 8.27374 7.82185 8.42535 7.83058C8.57696 7.83931 8.72536 7.87783 8.86208 7.94392C8.9988 8.01001 9.12117 8.10239 9.22218 8.21577ZM19.3741 3.64319C22.7549 3.80198 25.587 4.72698 27.8995 6.51223C28.1423 6.6997 28.3008 6.97597 28.34 7.28027C28.3792 7.58457 28.2958 7.89196 28.1084 8.13484C27.9209 8.37771 27.6446 8.53616 27.3403 8.57534C27.036 8.61451 26.7286 8.5312 26.4858 8.34373C24.5664 6.86065 22.1922 6.09136 19.2661 5.95415C16.3323 5.8154 13.9304 6.39198 11.9987 7.46344C11.4067 7.79181 10.7423 7.62686 10.4077 7.08265C10.3262 6.95392 10.2712 6.81013 10.2462 6.65979C10.2212 6.50946 10.2266 6.35563 10.2622 6.20743C10.2977 6.05922 10.3625 5.91965 10.453 5.79697C10.5434 5.67428 10.6575 5.57099 10.7885 5.49319C13.155 4.09952 16.0024 3.48594 19.3756 3.64319H19.3741Z" fill="white"/>
</svg>
