<svg width="32" height="32" viewBox="0 0 32 32" fill="none" xmlns="http://www.w3.org/2000/svg">
<g clip-path="url(#clip0_591_749)">
<path d="M15.997 3.2002C21.0354 3.2002 25.1874 6.9362 25.5714 11.7682L25.5938 12.125L25.6002 12.4834L25.5986 18.237L27.0786 21.7922C27.1154 21.8786 27.1426 21.9682 27.1634 22.0594L27.189 22.197L27.2018 22.4082C27.2 22.7613 27.0815 23.1038 26.8647 23.3825C26.648 23.6612 26.3451 23.8604 26.0034 23.949L25.8178 23.9922L25.6018 24.0082L20.0002 24.0066L19.9922 24.2642C19.9279 25.2793 19.4793 26.2317 18.7377 26.9278C17.9961 27.6239 17.0173 28.0113 16.0002 28.0113C14.9831 28.0113 14.0042 27.6239 13.2626 26.9278C12.521 26.2317 12.0724 25.2793 12.0082 24.2642L12.0002 24.0066H6.39855C6.2581 24.0068 6.11823 23.9885 5.98255 23.9522L5.78415 23.885C5.46117 23.7488 5.19184 23.5104 5.01753 23.2063C4.84323 22.9022 4.7736 22.5493 4.81935 22.2018L4.85295 21.997L4.92175 21.7922L6.39855 18.2418L6.40015 12.469L6.40656 12.109C6.60336 7.12179 10.8338 3.2002 15.997 3.2002ZM18.4002 24.0066H13.6002L13.6114 24.2322C13.6652 24.7862 13.9099 25.3043 14.3037 25.6978C14.6974 26.0912 15.2157 26.3356 15.7698 26.389L16.0002 26.4002C16.5965 26.4002 17.1715 26.1782 17.6131 25.7774C18.0547 25.3766 18.3313 24.8258 18.389 24.2322L18.4002 24.0066ZM15.997 4.8002C11.8002 4.8002 8.36496 7.8786 8.02896 11.8162L8.00656 12.1554L8.00015 12.4834V18.4002L7.93935 18.7074L6.39855 22.4082L25.5314 22.4114L25.6034 22.4082L24.061 18.7074L24.0002 18.4002V12.4994L23.9938 12.173C23.8258 8.0562 20.3122 4.8002 15.997 4.8002Z" fill="#132144"/>
<circle cx="20" cy="5" r="5" fill="#BA0000" stroke="white" stroke-width="2"/>
</g>
<defs>
<clipPath id="clip0_591_749">
<rect width="32" height="32" fill="white"/>
</clipPath>
</defs>
</svg>
