<svg width="201" height="200" viewBox="0 0 201 200" fill="none" xmlns="http://www.w3.org/2000/svg">
<path d="M5.16491 83.7802C3.37092 83.475 2.15853 81.7718 2.52268 79.9888C5.23533 66.7072 10.6228 54.1038 18.3693 42.9514C26.7429 30.8962 37.6677 20.8321 50.3681 13.4737C63.0685 6.11534 77.2331 1.64302 91.8562 0.374275C106.479 -0.894467 121.203 1.07148 134.98 6.13256C148.758 11.1936 161.253 19.2257 171.578 29.6586C181.903 40.0915 189.804 52.6694 194.722 66.4994C199.639 80.3293 201.451 95.0721 200.03 109.681C198.716 123.196 194.664 136.29 188.134 148.17C187.257 149.764 185.231 150.278 183.666 149.349C182.101 148.421 181.59 146.402 182.463 144.805C188.501 133.759 192.25 121.595 193.471 109.043C194.799 95.3969 193.106 81.6256 188.512 68.707C183.919 55.7885 176.538 44.0395 166.894 34.2941C157.25 24.5487 145.578 17.046 132.708 12.3184C119.838 7.59085 106.085 5.75445 92.4258 6.93958C78.7664 8.12472 65.5352 12.3023 53.6718 19.1758C41.8083 26.0493 31.6035 35.4501 23.7816 46.7109C16.587 57.0688 11.5709 68.7666 9.02306 81.0949C8.65476 82.877 6.9589 84.0855 5.16491 83.7802Z" fill="#00B0F0"/>
<path d="M100.293 187.083C148.505 187.083 187.588 148 187.588 99.7884C187.588 51.5771 148.505 12.4941 100.293 12.4941C52.082 12.4941 12.999 51.5771 12.999 99.7884C12.999 148 52.082 187.083 100.293 187.083Z" fill="white"/>
<path fill-rule="evenodd" clip-rule="evenodd" d="M129.155 61.4461L112.96 36.8848H110.426L111.957 60.0559L129.155 61.4461Z" fill="#C7DBEF"/>
<path fill-rule="evenodd" clip-rule="evenodd" d="M186.768 86.5033C187.43 90.8356 187.773 95.2726 187.773 99.7897C187.773 148.001 148.69 187.084 100.479 187.084C90.6382 187.084 81.1787 185.454 72.3538 182.453L42.127 150.807L62.1839 147.594L160.642 146.918L160.889 69.5841L155.15 64.0695L160.889 63.6914L163.536 65.5031L186.768 86.5038L186.768 86.5033Z" fill="#C7DBEF"/>
<path d="M162.48 60.0566H39.2743C38.6468 60.0566 38.1382 62.9463 38.1382 66.5108V144.845C38.1382 148.409 38.6468 151.299 39.2743 151.299H162.48C163.107 151.299 163.616 148.409 163.616 144.845V66.5108C163.616 62.9463 163.107 60.0566 162.48 60.0566Z" fill="#77B3D5"/>
<path d="M157.578 74.4766H44.1748V145.329H157.578V74.4766Z" fill="white"/>
<path d="M115.67 63.584H85.7532C84.9547 63.584 84.3074 64.9445 84.3074 66.6227V69.3702C84.3074 71.0484 84.9547 72.4089 85.7532 72.4089H115.67C116.468 72.4089 117.116 71.0484 117.116 69.3702V66.6227C117.116 64.9445 116.468 63.584 115.67 63.584Z" fill="white"/>
<path d="M154.878 76.875H46.875V142.933H154.878V76.875Z" fill="#EFF5FB"/>
<path d="M114.156 64.8906H87.2667C86.5489 64.8906 85.967 65.8486 85.967 67.0304V68.9641C85.967 70.1459 86.5489 71.1039 87.2667 71.1039H114.156C114.874 71.1039 115.456 70.1459 115.456 68.9641V67.0304C115.456 65.8486 114.874 64.8906 114.156 64.8906Z" fill="#77B3D5"/>
<path fill-rule="evenodd" clip-rule="evenodd" d="M62.3129 112.92L72.447 137.779H51.5825L52.465 122.925C52.7012 118.95 57.8552 114.543 62.3129 112.92V112.92Z" fill="#77B3D5"/>
<path fill-rule="evenodd" clip-rule="evenodd" d="M67.5886 109.832L62.313 112.921L72.447 137.78H72.9062H73.768L83.902 112.921L78.6264 109.832C77.4064 111.261 75.7102 112.309 73.1075 112.633C70.5048 112.31 68.8087 111.261 67.5886 109.832Z" fill="#77B3D5"/>
<path fill-rule="evenodd" clip-rule="evenodd" d="M62.8418 114.22L72.4465 137.781H72.9056H73.7674L83.1858 114.678L77.3096 111.065C76.2404 111.853 74.8856 112.413 73.1074 112.633C71.2571 112.404 69.8654 111.807 68.7765 110.969L62.8418 114.221V114.22Z" fill="#C7DBEF"/>
<path fill-rule="evenodd" clip-rule="evenodd" d="M83.9021 112.92L73.7681 137.779H94.6325L93.75 122.925C93.5139 118.95 88.3598 114.543 83.9021 112.92V112.92Z" fill="#77B3D5"/>
<path fill-rule="evenodd" clip-rule="evenodd" d="M73.0344 137.651C72.2268 134.311 70.8979 130.972 69.2173 127.632C70.2568 124.389 71.3896 121.706 72.3357 117.901C70.8229 115.911 69.8381 113.883 70.0706 111.769L73.0344 110.857L75.9982 111.769C76.2306 113.883 75.2462 115.911 73.733 117.901C74.6787 121.706 75.8119 124.389 76.8514 127.632C75.1708 130.972 73.8419 134.311 73.0344 137.651Z" fill="#77B3D5"/>
<path fill-rule="evenodd" clip-rule="evenodd" d="M63.8469 100.364C63.756 99.8145 63.6824 99.254 63.6221 98.6845C64.0501 96.6796 64.9798 95.3756 64.9067 92.6697L80.6502 92.6843C80.5804 94.5309 81.7792 96.1106 82.344 97.8237C82.2921 98.7326 82.2006 99.5774 82.0734 100.365H82.1719C86.9596 80.0277 56.655 83.865 63.8469 100.365V100.364Z" fill="#78A8D9"/>
<path d="M149.586 92.4258H101.929V96.9335H149.586V92.4258Z" fill="#C7DBEF"/>
<path d="M149.586 104.965H101.929V109.473H149.586V104.965Z" fill="#C7DBEF"/>
<path d="M149.586 117.502H101.929V122.01H149.586V117.502Z" fill="#C7DBEF"/>
<path fill-rule="evenodd" clip-rule="evenodd" d="M64.9072 92.668L80.6506 92.6826C80.5809 94.5291 81.7797 96.1088 82.3444 97.822C82.0507 102.977 80.4894 106.096 78.1889 108.028L78.6264 109.832C77.4063 111.261 75.7102 112.309 73.1075 112.632C70.5048 112.31 68.8086 111.261 67.5886 109.832L67.8705 108.203C65.0293 105.939 64.0266 102.502 63.6226 98.6837C64.0506 96.6788 64.9802 95.3748 64.9072 92.6689V92.668Z" fill="#C7DBEF"/>
<path fill-rule="evenodd" clip-rule="evenodd" d="M89.7946 68.6542H111.628C112.505 68.6542 113.222 67.9371 113.222 67.0612V37.757C113.222 36.8811 112.505 36.1641 111.628 36.1641H89.7946C88.9182 36.1641 88.2012 36.8811 88.2012 37.757V67.0612C88.2012 67.9371 88.9177 68.6542 89.7946 68.6542Z" fill="white"/>
<path fill-rule="evenodd" clip-rule="evenodd" d="M113.222 66.5742V67.0617C113.222 67.9376 112.505 68.6546 111.628 68.6546H89.7946C88.9182 68.6546 88.2012 67.9376 88.2012 67.0617V66.5742H113.221H113.222Z" fill="#E5E9EF"/>
<path fill-rule="evenodd" clip-rule="evenodd" d="M113.222 58.0473V37.757C113.222 36.8811 112.505 36.1641 111.628 36.1641H89.7946C88.9182 36.1641 88.2012 36.8816 88.2012 37.757V58.0473H113.221H113.222Z" fill="#E5E9EF"/>
<path d="M100.712 55.2312C105.199 55.2312 108.837 51.5933 108.837 47.1058C108.837 42.6183 105.199 38.9805 100.712 38.9805C96.224 38.9805 92.5862 42.6183 92.5862 47.1058C92.5862 51.5933 96.224 55.2312 100.712 55.2312Z" fill="white"/>
<path d="M100.712 52.6875C103.795 52.6875 106.294 50.1884 106.294 47.1055C106.294 44.0226 103.795 41.5234 100.712 41.5234C97.6291 41.5234 95.1299 44.0226 95.1299 47.1055C95.1299 50.1884 97.6291 52.6875 100.712 52.6875Z" fill="#77B3D5"/>
</svg>
