<svg width="45" height="46" viewBox="0 0 45 46" fill="none" xmlns="http://www.w3.org/2000/svg">
<rect y="0.871094" width="45" height="45" rx="4" fill="#D7FFD4"/>
<path d="M20.0001 27.0409L16.5301 23.5709C16.3432 23.3839 16.0896 23.2789 15.8251 23.2789C15.5607 23.2789 15.3071 23.3839 15.1201 23.5709C14.9332 23.7579 14.8281 24.0115 14.8281 24.2759C14.8281 24.4069 14.8539 24.5365 14.904 24.6575C14.9541 24.7784 15.0276 24.8883 15.1201 24.9809L19.3001 29.1609C19.6901 29.5509 20.3201 29.5509 20.7101 29.1609L31.2901 18.5809C31.4771 18.3939 31.5822 18.1404 31.5822 17.8759C31.5822 17.6115 31.4771 17.3579 31.2901 17.1709C31.1032 16.9839 30.8496 16.8789 30.5851 16.8789C30.3207 16.8789 30.0671 16.9839 29.8801 17.1709L20.0001 27.0409Z" fill="#34E627"/>
</svg>
