<svg width="29" height="29" viewBox="0 0 29 29" fill="none" xmlns="http://www.w3.org/2000/svg">
<rect width="29" height="29" rx="4" fill="#FFECEC"/>
<path d="M20.0125 8.99645C19.9315 8.91533 19.8353 8.85098 19.7295 8.80707C19.6236 8.76316 19.5102 8.74056 19.3956 8.74056C19.281 8.74056 19.1675 8.76316 19.0617 8.80707C18.9558 8.85098 18.8597 8.91533 18.7787 8.99645L14.5 13.2664L10.2212 8.9877C10.1402 8.90669 10.044 8.84243 9.93818 8.79858C9.83233 8.75474 9.71889 8.73218 9.60433 8.73218C9.48976 8.73218 9.37632 8.75474 9.27048 8.79858C9.16463 8.84243 9.06846 8.90669 8.98745 8.9877C8.90644 9.0687 8.84218 9.16488 8.79834 9.27072C8.7545 9.37656 8.73193 9.49001 8.73193 9.60457C8.73193 9.71914 8.7545 9.83258 8.79834 9.93842C8.84218 10.0443 8.90644 10.1404 8.98745 10.2214L13.2662 14.5002L8.98745 18.7789C8.90644 18.86 8.84218 18.9561 8.79834 19.062C8.7545 19.1678 8.73193 19.2813 8.73193 19.3958C8.73193 19.5104 8.7545 19.6238 8.79834 19.7297C8.84218 19.8355 8.90644 19.9317 8.98745 20.0127C9.06846 20.0937 9.16463 20.158 9.27048 20.2018C9.37632 20.2456 9.48976 20.2682 9.60433 20.2682C9.71889 20.2682 9.83233 20.2456 9.93818 20.2018C10.044 20.158 10.1402 20.0937 10.2212 20.0127L14.5 15.7339L18.7787 20.0127C18.8597 20.0937 18.9559 20.158 19.0617 20.2018C19.1676 20.2456 19.281 20.2682 19.3956 20.2682C19.5101 20.2682 19.6236 20.2456 19.7294 20.2018C19.8353 20.158 19.9314 20.0937 20.0125 20.0127C20.0935 19.9317 20.1577 19.8355 20.2016 19.7297C20.2454 19.6238 20.268 19.5104 20.268 19.3958C20.268 19.2813 20.2454 19.1678 20.2016 19.062C20.1577 18.9561 20.0935 18.86 20.0125 18.7789L15.7337 14.5002L20.0125 10.2214C20.345 9.88895 20.345 9.32895 20.0125 8.99645V8.99645Z" fill="#F27070"/>
</svg>
