<svg width="45" height="46" viewBox="0 0 45 46" fill="none" xmlns="http://www.w3.org/2000/svg">
<rect y="0.871094" width="45" height="45" rx="4" fill="#FFECEC"/>
<path d="M29.3002 16.5813C29.2077 16.4886 29.0978 16.4151 28.9768 16.3649C28.8559 16.3147 28.7262 16.2889 28.5952 16.2889C28.4643 16.2889 28.3346 16.3147 28.2136 16.3649C28.0926 16.4151 27.9827 16.4886 27.8902 16.5813L23.0002 21.4613L18.1102 16.5713C18.0176 16.4787 17.9077 16.4053 17.7868 16.3552C17.6658 16.3051 17.5362 16.2793 17.4052 16.2793C17.2743 16.2793 17.1446 16.3051 17.0237 16.3552C16.9027 16.4053 16.7928 16.4787 16.7002 16.5713C16.6076 16.6639 16.5342 16.7738 16.4841 16.8948C16.434 17.0157 16.4082 17.1454 16.4082 17.2763C16.4082 17.4072 16.434 17.5369 16.4841 17.6579C16.5342 17.7788 16.6076 17.8887 16.7002 17.9813L21.5902 22.8713L16.7002 27.7613C16.6076 27.8539 16.5342 27.9638 16.4841 28.0848C16.434 28.2057 16.4082 28.3354 16.4082 28.4663C16.4082 28.5972 16.434 28.7269 16.4841 28.8479C16.5342 28.9688 16.6076 29.0787 16.7002 29.1713C16.7928 29.2639 16.9027 29.3373 17.0237 29.3874C17.1446 29.4375 17.2743 29.4633 17.4052 29.4633C17.5362 29.4633 17.6658 29.4375 17.7868 29.3874C17.9077 29.3373 18.0176 29.2639 18.1102 29.1713L23.0002 24.2813L27.8902 29.1713C27.9828 29.2639 28.0927 29.3373 28.2137 29.3874C28.3346 29.4375 28.4643 29.4633 28.5952 29.4633C28.7262 29.4633 28.8558 29.4375 28.9768 29.3874C29.0977 29.3373 29.2076 29.2639 29.3002 29.1713C29.3928 29.0787 29.4662 28.9688 29.5163 28.8479C29.5665 28.7269 29.5922 28.5972 29.5922 28.4663C29.5922 28.3354 29.5665 28.2057 29.5163 28.0848C29.4662 27.9638 29.3928 27.8539 29.3002 27.7613L24.4102 22.8713L29.3002 17.9813C29.6802 17.6013 29.6802 16.9613 29.3002 16.5813Z" fill="#F27070"/>
</svg>
