<svg width="35" height="35" viewBox="0 0 35 35" fill="none" xmlns="http://www.w3.org/2000/svg">
<path d="M5.83398 2.84787C5.83398 2.08082 6.42161 1.45898 7.14648 1.45898H23.7339C24.0408 1.45898 24.3382 1.57289 24.574 1.7809L31.6118 7.98698C31.911 8.25085 32.084 8.64176 32.084 9.05396V29.2367C32.084 30.0038 31.4964 30.6257 30.7715 30.6257H7.14648C6.42161 30.6257 5.83398 30.0038 5.83398 29.2367V2.84787Z" fill="white"/>
<path d="M22.3341 3.11972C22.3175 1.80347 23.5697 1.04651 24.446 1.84325L31.2297 8.01168C32.2323 8.92332 31.7115 10.8361 30.4563 10.8526L23.752 10.9406C23.0239 10.9501 22.4247 10.2497 22.4137 9.3761L22.3341 3.11972Z" fill="#D9F5FF"/>
<path opacity="0.72" d="M28.4375 26.3652H9.47917C9.07646 26.3652 8.75 26.6917 8.75 27.0944C8.75 27.4971 9.07646 27.8236 9.47917 27.8236H28.4375C28.8402 27.8236 29.1667 27.4971 29.1667 27.0944C29.1667 26.6917 28.8402 26.3652 28.4375 26.3652Z" fill="#00B0F0"/>
<path opacity="0.72" d="M28.4375 23.4492H9.47917C9.07646 23.4492 8.75 23.7757 8.75 24.1784C8.75 24.5811 9.07646 24.9075 9.47917 24.9075H28.4375C28.8402 24.9075 29.1667 24.5811 29.1667 24.1784C29.1667 23.7757 28.8402 23.4492 28.4375 23.4492Z" fill="#00B0F0"/>
<path opacity="0.72" d="M28.4375 20.5312H9.47917C9.07646 20.5312 8.75 20.8577 8.75 21.2604C8.75 21.6631 9.07646 21.9896 9.47917 21.9896H28.4375C28.8402 21.9896 29.1667 21.6631 29.1667 21.2604C29.1667 20.8577 28.8402 20.5312 28.4375 20.5312Z" fill="#00B0F0"/>
</svg>
